<?xml version="1.0" standalone="no"?>
<!DOCTYPE svg PUBLIC "-//W3C//DTD SVG 20010904//EN"
 "http://www.w3.org/TR/2001/REC-SVG-20010904/DTD/svg10.dtd">
<svg version="1.0" xmlns="http://www.w3.org/2000/svg"
 width="500.000000pt" height="500.000000pt" viewBox="0 0 500.000000 500.000000"
 preserveAspectRatio="xMidYMid meet">

<g transform="translate(0.000000,500.000000) scale(0.100000,-0.100000)"
fill="#000000" stroke="none">
<path d="M951 3774 c-194 -97 -442 -478 -606 -929 -91 -253 -120 -401 -113
-587 8 -199 67 -334 181 -411 136 -94 291 -87 512 23 122 60 426 271 473 327
12 16 30 52 38 82 14 45 14 55 3 67 -12 11 -28 4 -99 -42 -298 -195 -610 -273
-831 -208 -58 17 -126 74 -146 121 -16 40 -17 157 -2 221 24 96 123 352 193
497 138 286 354 568 455 595 97 25 133 -2 219 -166 31 -59 63 -110 70 -112 17
-5 51 76 59 138 10 89 -74 273 -158 344 -82 70 -162 82 -248 40z"/>
<path d="M3952 3733 c-68 -33 -94 -102 -96 -258 -2 -91 -6 -118 -22 -146 -26
-44 -81 -74 -172 -94 -41 -9 -84 -26 -98 -38 -24 -21 -24 -23 -8 -46 16 -22
20 -23 99 -16 134 11 148 -10 116 -171 -10 -54 -29 -184 -41 -289 -12 -104
-32 -278 -44 -385 -30 -252 -23 -339 32 -402 22 -26 53 -22 101 12 59 43 94
105 126 220 27 97 27 101 10 120 -10 11 -31 20 -47 20 -16 0 -31 6 -34 14 -3
7 2 53 10 102 9 50 29 207 46 349 39 339 56 432 83 473 24 36 104 100 199 160
84 52 141 95 146 110 7 22 -48 13 -138 -24 -61 -24 -100 -34 -127 -32 l-38 3
0 153 c0 140 -2 155 -19 168 -25 18 -43 17 -84 -3z"/>
<path d="M2122 2994 c-36 -18 -92 -81 -165 -184 -56 -80 -124 -147 -135 -135
-5 6 -16 36 -26 67 -40 133 -120 158 -180 55 -34 -59 -54 -142 -67 -287 -6
-69 -22 -205 -35 -302 -29 -217 -30 -263 -4 -305 23 -39 25 -39 67 -13 49 30
76 79 149 275 99 267 219 493 323 608 34 37 52 34 91 -15 l33 -41 23 26 c12
14 30 59 40 100 l17 74 -24 44 c-28 51 -55 59 -107 33z"/>
<path d="M2482 2869 c-123 -61 -233 -280 -277 -554 -8 -49 -15 -112 -15 -140
0 -76 27 -184 56 -228 70 -106 243 -99 357 14 41 41 48 52 45 81 -3 32 -5 33
-43 32 -22 0 -63 -6 -91 -12 -71 -15 -106 -4 -121 39 -33 94 -11 153 97 264
138 142 242 338 221 413 -15 49 -40 80 -82 96 -53 22 -96 20 -147 -5z m127
-138 c12 -16 21 -34 21 -40 0 -16 -86 -155 -109 -175 -11 -10 -28 -16 -38 -14
-58 12 29 258 91 258 8 0 24 -13 35 -29z"/>
<path d="M3180 2726 c-105 -44 -138 -65 -202 -135 -138 -149 -209 -387 -145
-482 46 -68 104 -74 211 -19 82 42 99 38 108 -23 10 -73 63 -147 105 -147 41
0 59 63 92 311 17 123 36 263 42 310 11 79 11 89 -7 125 -13 27 -32 46 -64 62
-55 27 -71 27 -140 -2z m39 -142 c12 -15 21 -36 21 -47 0 -31 -119 -224 -175
-284 -40 -42 -57 -53 -82 -53 -43 0 -56 21 -51 79 5 53 48 133 133 249 63 86
115 105 154 56z"/>
<path d="M4506 2719 c-90 -38 -157 -89 -213 -164 -75 -99 -116 -191 -133 -299
-12 -77 0 -131 38 -168 48 -48 92 -48 187 1 44 23 84 39 91 37 6 -2 16 -31 23
-64 13 -65 67 -142 101 -142 24 0 56 41 64 82 17 94 79 569 79 608 1 57 -22
93 -77 120 -54 26 -76 24 -160 -11z m59 -135 c14 -15 25 -35 25 -45 0 -29
-130 -237 -182 -290 -35 -37 -54 -49 -77 -49 -33 0 -61 30 -61 66 0 52 165
319 207 336 35 13 64 8 88 -18z"/>
</g>
</svg>
